<?xml version="1.0" encoding="utf-8"?>
<!-- Generator: Adobe Illustrator 27.8.0, SVG Export Plug-In . SVG Version: 6.00 Build 0)  -->
<svg version="1.1" id="Layer_1" xmlns="http://www.w3.org/2000/svg" xmlns:xlink="http://www.w3.org/1999/xlink" x="0px" y="0px"
	 viewBox="0 0 148 156" style="enable-background:new 0 0 148 156;" xml:space="preserve">
<style type="text/css">
	.st0{fill-rule:evenodd;clip-rule:evenodd;fill:url(#Combined-Shape_00000171713773391349005250000003222187120970808989_);}
	.st1{fill-rule:evenodd;clip-rule:evenodd;fill:url(#A_00000142150899557407614820000015371881032493869992_);}
	.st2{fill-rule:evenodd;clip-rule:evenodd;fill:url(#B_00000137821711952898085600000012532514995196225962_);}
	.st3{fill-rule:evenodd;clip-rule:evenodd;fill:url(#B_00000029015836218515624960000017330131343481854883_);}
</style>
<g id="Group" transform="translate(115.000000, 33.000000)">
	
		<linearGradient id="Combined-Shape_00000082333865677163888860000009629960021317735082_" gradientUnits="userSpaceOnUse" x1="-114.6513" y1="480.2895" x2="-113.7332" y2="479.2795" gradientTransform="matrix(148 0 0 -156 16873 74881)">
		<stop  offset="0" style="stop-color:#3023AE"/>
		<stop  offset="1" style="stop-color:#C86DD7"/>
	</linearGradient>
	
		<path id="Combined-Shape_00000049925126047873041740000007993463313249687230_" style="fill-rule:evenodd;clip-rule:evenodd;fill:url(#Combined-Shape_00000082333865677163888860000009629960021317735082_);" d="
		M-41-32.5L33,0.3l0.1,0v90.3L26,93.7l-66.9,29.8l0-90.2l-74-32.9L-41-32.5z M24.9,14.5l-53.1,23.6v71.6l53.1-23.6V59.3l-8.9-5
		l8.9-12.9V14.5z"/>
	
		<linearGradient id="A_00000139272586313255311730000016093357198089915565_" gradientUnits="userSpaceOnUse" x1="-115.8445" y1="480.3524" x2="-115.5271" y2="479.3423" gradientTransform="matrix(53 0 0 -95 6053 45648)">
		<stop  offset="0" style="stop-color:#3023AE"/>
		<stop  offset="1" style="stop-color:#C86DD7"/>
	</linearGradient>
	<path id="A" style="fill-rule:evenodd;clip-rule:evenodd;fill:url(#A_00000139272586313255311730000016093357198089915565_);" d="
		M-87.3,49.1l17.7,7.9v-8.9l-17.7-7.9V49.1z M-51.9,109.5l-17.7-7.9V74.8L-87.3,67v26.8l-17.7-7.9V14.5l53,23.6V109.5z"/>
	
		<linearGradient id="B_00000156572698999771822760000004491623356069752731_" gradientUnits="userSpaceOnUse" x1="-120.4429" y1="481.9874" x2="-119.4229" y2="481.1894" gradientTransform="matrix(18 0 0 -16 2158 7780)">
		<stop  offset="0" style="stop-color:#3023AE"/>
		<stop  offset="1" style="stop-color:#C86DD7"/>
	</linearGradient>
	
		<polygon id="B" style="fill-rule:evenodd;clip-rule:evenodd;fill:url(#B_00000156572698999771822760000004491623356069752731_);" points="
		8.1,66.5 -9.9,74 -9.9,82.5 8.1,75 	"/>
	
		<linearGradient id="B_00000111152177733054570390000013101299005424678547_" gradientUnits="userSpaceOnUse" x1="-120.4429" y1="481.9874" x2="-119.4229" y2="481.1894" gradientTransform="matrix(18 0 0 -16 2158 7754)">
		<stop  offset="0" style="stop-color:#3023AE"/>
		<stop  offset="1" style="stop-color:#C86DD7"/>
	</linearGradient>
	
		<polygon id="B_00000123419560302633322360000007457908790714950844_" style="fill-rule:evenodd;clip-rule:evenodd;fill:url(#B_00000111152177733054570390000013101299005424678547_);" points="
		8.1,40.5 -9.9,48 -9.9,56.5 8.1,49 	"/>
</g>
</svg>
