<?xml version="1.0" encoding="UTF-8"?>
<svg id="Layer_1" xmlns="http://www.w3.org/2000/svg" version="1.1" viewBox="0 0 236 55">
  <!-- Generator: Adobe Illustrator 30.5.1, SVG Export Plug-In . SVG Version: 2.1.4 Build 3)  -->
  <defs>
    <style>
      .st0 {
        fill-rule: evenodd;
      }
    </style>
  </defs>
  <g id="Whole-Logo-Copy">
    <g id="BOX">
      <path id="Combined-Shape" class="st0" d="M109,8c0-4.42,3.58-8,7.99-8h111.01c4.41,0,7.99,3.59,7.99,8v39.01c0,4.42-3.58,8-7.99,8h-111.01c-4.41,0-7.99-3.59-7.99-8V8ZM150.92,34.58c.07.37.08.87.03,1.48-.05.61-.11,1.09-.18,1.43-.07.34-.14.66-.2.97-.07.31-.15.59-.25.87-.71,1.7-1.82,3.09-3.32,4.18-.58.41-1.2.76-1.86,1.05-.66.29-1.37.55-2.12.79-.37.14-.76.23-1.17.28-.41.05-.8.11-1.17.18-.17.03-.33.05-.48.05s-.31.02-.48.05c-.14.03-.28.03-.43,0-.15-.03-.31-.02-.48.05-.14.03-.28.04-.43.03-.15-.02-.31-.03-.48-.03h-14.89c-.58,0-1.06-.03-1.45-.08-.39-.05-.67-.28-.84-.69-.1-.27-.14-.69-.13-1.25.02-.56.03-1.03.03-1.4V12.6c0-.41,0-.84-.03-1.3-.02-.46.06-.82.23-1.1.14-.24.39-.41.76-.51.07-.03.14-.04.2-.03.07.02.14,0,.2-.03h15.2c.24,0,.48,0,.71-.03.24-.02.46,0,.66.03.17.07.34.09.51.05.17-.03.34-.03.51,0h.31c.2.07.42.09.64.08s.45,0,.69.08c.27.07.54.12.79.15.26.03.52.08.79.15.65.24,1.26.47,1.84.69.58.22,1.1.5,1.58.84.68.48,1.24,1.07,1.68,1.78s.8,1.53,1.07,2.45c.07.24.11.48.13.71.02.24.06.49.13.76.03.14.04.27.03.41-.02.14,0,.27.03.41.03.1.04.23.03.38-.02.15-.04.26-.08.33v.46c0,.1,0,.22-.03.36-.02.14-.03.24-.03.31-.07.24-.11.45-.13.64-.02.19-.06.37-.13.54-.44,1.22-1.02,2.23-1.73,3.01-.24.24-.49.44-.76.61-.27.17-.51.39-.71.66-.07.07-.14.16-.23.28-.08.12-.09.26-.03.43.07.27.29.5.66.69.37.19.7.37.97.54.92.61,1.67,1.33,2.24,2.14.54.78.97,1.7,1.27,2.75.1.27.17.55.2.84s.08.57.15.84v.56ZM190.54,26.57c.07.2.11.55.13,1.05.02.49,0,.84-.08,1.05v.66c-.07.34-.1.7-.1,1.07s-.03.75-.1,1.12c-.07.24-.12.48-.15.71-.03.24-.08.48-.15.71-.17.61-.33,1.21-.48,1.78-.15.58-.35,1.14-.59,1.68-1.02,2.38-2.4,4.36-4.13,5.94s-3.88,2.8-6.43,3.65c-.37.14-.75.24-1.12.31s-.75.14-1.12.2c-.17.07-.35.1-.54.1s-.37.02-.54.05l-1.68.15c-.14.03-.37.04-.71.03-.34-.02-.56-.04-.66-.08-.17-.03-.33-.04-.48-.03-.15.02-.31,0-.48-.03h-.56c-.27-.07-.53-.11-.76-.13-.24-.02-.49-.06-.76-.13-.27-.07-.54-.13-.82-.18-.27-.05-.54-.11-.82-.18-.37-.14-.76-.27-1.15-.41-.39-.14-.77-.29-1.15-.46-2.04-.88-3.77-2.07-5.18-3.54-1.41-1.48-2.56-3.24-3.44-5.28-.2-.48-.37-.98-.51-1.5-.14-.53-.29-1.06-.46-1.61-.07-.17-.1-.31-.1-.43s-.02-.25-.05-.38c-.07-.24-.12-.48-.15-.74-.03-.26-.09-.52-.15-.79-.03-.17-.04-.33-.03-.48.02-.15,0-.3-.08-.43-.03-.2-.03-.42,0-.64s.03-.43,0-.64c-.07-.17-.1-.43-.1-.79s.03-.62.1-.79c.03-.17.03-.33,0-.48-.03-.15-.03-.31,0-.48v-.31c.07-.24.09-.47.08-.69-.02-.22,0-.43.08-.64.07-.17.1-.35.1-.54s.03-.37.1-.54c.17-.58.31-1.15.41-1.71s.26-1.11.46-1.66c.27-.58.53-1.16.76-1.73.24-.58.53-1.12.87-1.63,1.02-1.63,2.19-2.99,3.52-4.08,1.33-1.09,2.94-2.02,4.85-2.8.44-.17.91-.31,1.4-.41.49-.1.98-.22,1.45-.36.17-.07.33-.1.48-.1s.31-.02.48-.05l1.53-.15c.07-.03.16-.03.28,0s.21.03.28,0c2.41-.07,4.5.18,6.27.74,1.77.56,3.35,1.33,4.74,2.32.44.31.9.65,1.38,1.05.48.39.87.79,1.17,1.2.17.17.34.35.51.54.17.19.32.37.46.54.37.54.75,1.1,1.12,1.66s.7,1.16.97,1.81c.2.48.38.93.54,1.38.15.44.31.92.48,1.43.1.34.19.69.26,1.05s.15.72.25,1.1c.07.24.1.47.1.69s.03.43.1.64.09.42.08.64c-.02.22,0,.42.03.59v.41ZM195.29,9.64h4.84c.51,0,.99,0,1.45.03.46.02.82.14,1.1.38.14.07.25.17.33.31.09.14.18.27.28.41.17.27.33.54.48.82.15.27.31.54.48.82.58.88,1.13,1.76,1.66,2.63.53.87,1.08,1.74,1.66,2.63.2.34.4.67.59.99.19.32.38.64.59.94.14.17.26.34.38.51.12.17.3.29.54.36.2.03.37,0,.51-.13.14-.12.24-.21.31-.28.31-.31.56-.65.76-1.05.2-.39.44-.77.71-1.15.58-.95,1.18-1.9,1.81-2.86.63-.95,1.23-1.9,1.81-2.86.27-.41.56-.87.87-1.38.31-.51.71-.85,1.22-1.02.27-.07.58-.1.92-.1h4.69c.37,0,.75.02,1.12.05.37.03.6.19.66.46.1.24.08.46-.08.66-.15.2-.26.37-.33.51-.31.48-.61.94-.92,1.4-.31.46-.61.93-.92,1.4-1.09,1.6-2.15,3.18-3.19,4.74-1.04,1.56-2.1,3.14-3.19,4.74-.27.41-.53.81-.76,1.2-.24.39-.49.79-.76,1.2-.07.14-.16.31-.28.51-.12.2-.14.44-.08.71.07.31.18.57.33.79.15.22.31.45.48.69.58.92,1.22,1.87,1.94,2.86.99,1.53,1.98,3.05,2.98,4.56s2.01,3.03,3.03,4.56c.37.58.75,1.14,1.12,1.68s.75,1.1,1.12,1.68c.07.14.2.34.38.61.19.27.25.53.18.76-.1.31-.36.47-.76.48s-.82.03-1.22.03h-4.08c-.34,0-.7,0-1.07.03-.37.02-.7,0-.97-.08-.58-.17-1.02-.52-1.33-1.05-.31-.53-.61-1.03-.92-1.5-.68-1.05-1.35-2.11-2.01-3.16s-1.33-2.11-2.01-3.16c-.17-.24-.31-.47-.43-.69s-.26-.45-.43-.69c-.1-.17-.2-.34-.31-.51-.1-.17-.22-.34-.36-.51-.1-.1-.22-.22-.36-.36s-.32-.17-.56-.1c-.24.07-.42.19-.54.36-.12.17-.25.34-.38.51-.2.31-.4.61-.59.92-.19.31-.38.61-.59.92-.71,1.09-1.43,2.17-2.14,3.24-.71,1.07-1.41,2.15-2.09,3.24-.27.44-.57.93-.89,1.48-.32.54-.77.9-1.35,1.07-.27.07-.58.09-.92.08-.34-.02-.66-.03-.97-.03h-3.37c-.34,0-.7,0-1.07.03-.37.02-.68-.04-.92-.18-.07-.07-.12-.13-.15-.18-.03-.05-.08-.11-.15-.18-.03-.37.04-.69.23-.94s.37-.52.54-.79c.37-.54.73-1.07,1.07-1.58s.7-1.04,1.07-1.58c.99-1.5,1.97-2.98,2.96-4.46.99-1.48,1.97-2.98,2.96-4.51.27-.44.56-.88.87-1.3.31-.43.59-.86.87-1.3.17-.27.36-.54.56-.82.2-.27.34-.59.41-.97.07-.27.05-.52-.05-.74-.1-.22-.2-.4-.31-.54-.24-.41-.48-.8-.71-1.17-.24-.37-.49-.75-.76-1.12-.17-.27-.34-.53-.51-.76-.17-.24-.34-.49-.51-.77-.71-1.05-1.42-2.1-2.12-3.14-.7-1.04-1.42-2.08-2.17-3.14-.17-.27-.33-.53-.48-.76-.15-.24-.31-.49-.48-.77-.24-.31-.45-.61-.64-.92-.19-.31-.38-.59-.59-.87-.17-.2-.32-.41-.46-.61-.14-.2-.27-.41-.41-.61-.07-.17-.16-.37-.28-.61-.12-.24-.11-.46.03-.66.1-.14.31-.24.61-.31.07-.03.14-.04.2-.03.07.02.14,0,.2-.03Z"/>
      <path class="st0" d="M143.01,35.39c.07-.48.04-.99-.08-1.53-.12-.54-.25-.95-.38-1.22-.48-1.22-1.41-2.07-2.8-2.55-.58-.17-1.22-.27-1.91-.31s-1.42-.05-2.17-.05h-5.76c-.07.07-.13.09-.18.08s-.11-.03-.18-.03c-.41.1-.68.27-.82.51-.17.27-.25.62-.25,1.05v5.74c0,.41,0,.82.03,1.25.02.42.11.76.28.99.14.17.36.3.66.38s.65.14,1.05.15c.39.02.79.02,1.2,0,.41-.02.76-.03,1.07-.03,1.02,0,2.01,0,2.96.03.95.02,1.85-.03,2.7-.15s1.61-.32,2.27-.61,1.2-.74,1.61-1.35c.17-.27.31-.59.41-.94.1-.36.2-.72.31-1.1v-.31Z"/>
      <path class="st0" d="M128.73,16.32c-.17.24-.25.54-.25.89v3.85c0,.24,0,.48-.03.74-.02.26,0,.47.03.64v.51c.07.2.12.38.15.54.03.15.08.3.15.43.14.17.35.29.64.36.29.07.61.11.97.13.36.02.72.02,1.1,0,.37-.02.71-.03,1.02-.03.51,0,1.05,0,1.61.03s1.12.03,1.68.03,1.1-.03,1.61-.08.95-.14,1.33-.28c1.02-.34,1.78-.93,2.3-1.78.24-.44.39-1.02.46-1.73.07-1.16-.1-2.07-.51-2.73-.41-.66-1-1.18-1.78-1.56-.2-.07-.42-.13-.66-.18-.24-.05-.49-.11-.76-.18-.14-.03-.34-.05-.61-.05-.41-.1-.88-.14-1.4-.13s-1.03.03-1.5.03h-4.34c-.07.03-.14.05-.23.05s-.16.02-.23.05c-.34.1-.58.25-.71.46h0Z"/>
      <path class="st0" d="M182.64,28.71c.07-.17.1-.42.1-.74s-.03-.57-.1-.74v-.87c-.03-.14-.04-.26-.03-.38.02-.12,0-.25-.08-.38-.07-.27-.11-.54-.13-.79s-.06-.5-.13-.74c0-.17-.03-.36-.1-.56-.1-.37-.2-.75-.31-1.12-.1-.37-.24-.75-.41-1.12-.75-1.73-1.83-3.14-3.24-4.21-1.41-1.07-3.37-1.61-5.89-1.61-.07.03-.14.04-.23.03-.08-.02-.16,0-.23.03-.14.03-.27.04-.41.03-.14-.02-.29,0-.46.08-.37.07-.74.14-1.1.23-.36.09-.69.2-.99.33-1.43.61-2.56,1.46-3.39,2.55s-1.5,2.4-2.01,3.93c-.1.37-.18.74-.23,1.1-.05.36-.13.72-.23,1.1-.03.14-.05.26-.05.38s-.02.25-.05.38c-.07.17-.08.36-.05.56.03.2.03.39,0,.56-.07.17-.11.48-.13.94-.02.46,0,.77.08.94v.56c.03.14.05.28.05.43s.02.3.05.43c0,.14,0,.26.03.38.02.12.03.25.03.38.1.37.18.75.23,1.12.05.37.14.73.28,1.07.37,1.09.83,2.1,1.38,3.03s1.22,1.69,2.04,2.27c.17.17.35.31.54.41s.38.2.59.31c.37.24.77.42,1.2.56.43.14.88.27,1.35.41.17.07.33.09.48.08.15-.02.31,0,.48.03.2.07.41.1.61.1h1.07c.17-.03.32-.04.46-.03.14.02.29,0,.46-.08.34-.07.68-.13,1.02-.18.34-.05.66-.14.97-.28,1.46-.58,2.61-1.33,3.44-2.24.83-.92,1.54-2.11,2.12-3.57.17-.37.3-.78.38-1.22.08-.44.2-.88.33-1.33l.15-1.22c.03-.14.05-.28.05-.43v-.89Z"/>
    </g>
    <path id="APP" class="st0" d="M34.1,42.95c.03.14.09.31.18.51.09.2.15.42.2.64.05.22.06.43.03.64-.03.2-.15.36-.36.46-.27.17-.72.24-1.35.2-.63-.03-1.15-.05-1.56-.05h-2.4c-.27,0-.52,0-.74.03-.22.02-.43,0-.64-.08-.37-.1-.65-.31-.82-.61-.17-.27-.3-.56-.38-.87-.09-.31-.2-.61-.33-.92-.17-.54-.35-1.09-.54-1.63s-.38-1.07-.59-1.58c-.1-.31-.2-.59-.28-.84-.08-.26-.18-.48-.28-.69-.1-.2-.25-.38-.46-.54-.2-.15-.48-.26-.82-.33-.17,0-.33,0-.48-.03-.15-.02-.31-.03-.48-.03h-8.06c-.58,0-1.2,0-1.86-.03-.66-.02-1.18.11-1.56.38-.27.2-.46.48-.56.82-.1.34-.22.68-.36,1.02-.27.58-.5,1.18-.69,1.81-.19.63-.4,1.25-.64,1.86-.14.34-.26.7-.38,1.07-.12.37-.31.66-.59.87-.17.14-.42.23-.74.28-.32.05-.68.08-1.07.08s-.79,0-1.2-.03c-.41-.02-.76-.03-1.07-.03-.44,0-.98,0-1.61.03-.63.02-1.08-.06-1.35-.23-.17-.1-.26-.25-.28-.46-.02-.2,0-.42.05-.64.05-.22.11-.43.18-.64.07-.2.14-.37.2-.51.34-.78.65-1.58.94-2.4.29-.82.59-1.61.89-2.4.14-.27.24-.54.31-.82.07-.27.17-.54.31-.82.27-.71.54-1.44.82-2.19s.54-1.48.82-2.19c.27-.68.53-1.35.76-2.01.24-.66.49-1.33.77-2.01.78-1.87,1.5-3.76,2.17-5.66.66-1.9,1.39-3.79,2.17-5.66.07-.17.12-.32.15-.46.03-.14.08-.29.15-.46.27-.71.54-1.44.82-2.19.27-.75.56-1.48.87-2.19.17-.37.31-.76.43-1.15s.33-.71.64-.94c.17-.1.39-.19.66-.26.07-.03.14-.04.2-.03.07.02.14,0,.2-.03h4.49c.37,0,.76,0,1.15-.03s.71.06.94.23c.37.2.62.5.74.89.12.39.26.79.43,1.2.24.58.46,1.15.66,1.71.2.56.42,1.13.66,1.71.07.2.14.41.2.61.07.2.14.41.2.61.27.68.53,1.35.76,2.01.24.66.49,1.33.77,2.01.68,1.7,1.32,3.42,1.91,5.15.6,1.73,1.25,3.45,1.96,5.15.07.14.11.26.13.38.02.12.06.25.13.38.2.54.41,1.09.61,1.63.2.54.41,1.09.61,1.63.14.27.24.54.31.79s.15.52.26.79c.44,1.09.85,2.18,1.22,3.26s.78,2.16,1.22,3.21c.07.1.1.2.1.28s.03.18.1.28h0ZM20.89,31.27c.44-.17.65-.46.61-.87-.03-.41-.14-.8-.31-1.17-.07-.14-.1-.26-.1-.38s-.03-.25-.1-.38c-.44-1.16-.85-2.33-1.22-3.52s-.8-2.38-1.27-3.57c-.07-.17-.14-.38-.2-.64s-.15-.49-.25-.71c-.1-.22-.22-.42-.36-.59-.14-.17-.31-.26-.51-.26-.07.07-.14.12-.2.15s-.14.09-.2.15c-.27.34-.47.75-.59,1.22-.12.48-.26.93-.43,1.38-.41.95-.77,1.92-1.1,2.91-.32.99-.67,1.97-1.05,2.96-.14.34-.25.67-.36.99s-.2.67-.31,1.05c-.1.27-.09.58.05.92.17.24.45.37.84.41.39.03.79.05,1.2.05h4.9c.37,0,.7-.03.97-.1h0ZM65.01,13.57c.78,1.09,1.35,2.29,1.71,3.62.36,1.33.48,2.92.38,4.79-.07.75-.19,1.44-.36,2.07s-.37,1.22-.61,1.76c-.07.14-.13.26-.18.38-.05.12-.11.25-.18.38-.14.24-.26.47-.38.69s-.26.43-.43.64c-.68.95-1.5,1.73-2.47,2.32-.97.6-2.07,1.1-3.29,1.5-.37.14-.76.22-1.17.26-.41.03-.82.1-1.22.2-.2.03-.41.05-.61.05s-.41.02-.61.05h-7.78c-.49,0-.88.1-1.15.31-.34.24-.51.65-.51,1.25v8.49c0,.41,0,.85.03,1.33.02.48-.06.85-.23,1.12-.14.24-.44.42-.92.56-.24.07-.49.08-.76.05-.27-.03-.54-.05-.82-.05h-2.96c-.37,0-.72,0-1.05-.03-.32-.02-.59-.11-.79-.28-.2-.17-.32-.43-.36-.79s-.05-.72-.05-1.1V12.65c0-.48,0-1.04-.03-1.68-.02-.65.06-1.1.23-1.38.14-.2.39-.37.76-.51.07-.03.14-.04.23-.03s.16,0,.23-.03h14.74c.31,0,.61,0,.92-.03.31-.02.59,0,.87.08h.25c.17.07.36.1.56.1s.39.03.56.1c.17.03.32.05.46.05s.29.03.46.1c.54.17,1.09.33,1.63.48.54.15,1.05.37,1.53.64.17.14.36.25.56.36.2.1.41.24.61.41.17.1.31.21.43.33.12.12.26.25.43.38l.31.31c.41.41.75.82,1.02,1.22h0ZM59.4,21.93c.07-.37.09-.84.08-1.4-.02-.56-.08-1.03-.18-1.4-.2-.75-.46-1.34-.77-1.78-.31-.44-.76-.85-1.38-1.22-.51-.31-1.14-.54-1.89-.69-.75-.15-1.56-.25-2.42-.28-.87-.03-1.76-.04-2.68-.03s-1.78.03-2.6.03c-.1.03-.2.06-.28.08s-.18.03-.28.03c-.34.14-.56.34-.66.61-.14.27-.2.64-.2,1.1v7.45c0,.49.08.88.26,1.15.14.2.34.36.61.46.27.1.58.16.92.18.34.02.71.02,1.1,0s.76-.03,1.1-.03c1.8,0,3.45-.08,4.95-.25s2.63-.76,3.42-1.78c.2-.31.37-.64.51-.99.14-.36.27-.76.41-1.2h0ZM99.02,13.57c.78,1.09,1.35,2.29,1.71,3.62.36,1.33.48,2.92.38,4.79-.07.75-.19,1.44-.36,2.07s-.37,1.22-.61,1.76c-.07.14-.13.26-.18.38-.05.12-.11.25-.18.38-.14.24-.26.47-.38.69-.12.22-.26.43-.43.64-.68.95-1.5,1.73-2.47,2.32s-2.07,1.1-3.29,1.5c-.37.14-.76.22-1.17.26-.41.03-.82.1-1.22.2-.2.03-.41.05-.61.05s-.41.02-.61.05h-7.78c-.49,0-.88.1-1.15.31-.34.24-.51.65-.51,1.25v8.49c0,.41,0,.85.03,1.33s-.06.85-.23,1.12c-.14.24-.44.42-.92.56-.24.07-.49.08-.76.05s-.54-.05-.82-.05h-2.96c-.37,0-.72,0-1.05-.03-.32-.02-.59-.11-.79-.28-.2-.17-.32-.43-.36-.79-.03-.36-.05-.72-.05-1.1V12.65c0-.48,0-1.04-.03-1.68-.02-.65.06-1.1.23-1.38.14-.2.39-.37.76-.51.07-.03.14-.04.23-.03s.16,0,.23-.03h14.74c.31,0,.61,0,.92-.03.31-.02.59,0,.87.08h.25c.17.07.36.1.56.1s.39.03.56.1c.17.03.32.05.46.05s.29.03.46.1c.54.17,1.09.33,1.63.48.54.15,1.05.37,1.53.64.17.14.36.25.56.36.2.1.41.24.61.41.17.1.31.21.43.33.12.12.26.25.43.38l.31.31c.41.41.75.82,1.02,1.22h0ZM93.41,21.93c.07-.37.09-.84.08-1.4-.02-.56-.08-1.03-.18-1.4-.2-.75-.46-1.34-.76-1.78-.31-.44-.76-.85-1.38-1.22-.51-.31-1.14-.54-1.89-.69s-1.56-.25-2.42-.28c-.87-.03-1.76-.04-2.68-.03-.92.02-1.78.03-2.6.03-.1.03-.2.06-.28.08s-.18.03-.28.03c-.34.14-.56.34-.66.61-.14.27-.2.64-.2,1.1v7.45c0,.49.08.88.25,1.15.14.2.34.36.61.46.27.1.58.16.92.18s.71.02,1.1,0c.39-.02.76-.03,1.1-.03,1.8,0,3.45-.08,4.95-.25,1.5-.17,2.63-.76,3.42-1.78.2-.31.37-.64.51-.99.14-.36.27-.76.41-1.2h0Z"/>
  </g>
</svg>