<?xml version="1.0" encoding="UTF-8"?>
<svg width="73px" height="77px" viewBox="0 0 73 77" version="1.1" xmlns="http://www.w3.org/2000/svg" xmlns:xlink="http://www.w3.org/1999/xlink">
    <title>appboxes</title>
    <defs>
        <linearGradient x1="100%" y1="0%" x2="-44.0930351%" y2="0%" id="linearGradient-1">
            <stop stop-color="#001CFF" offset="0%"></stop>
            <stop stop-color="#00FFD6" offset="100%"></stop>
        </linearGradient>
        <linearGradient x1="108.052441%" y1="14.6446609%" x2="-11.2438375%" y2="14.6446609%" id="linearGradient-2">
            <stop stop-color="#001CFF" offset="0%"></stop>
            <stop stop-color="#00FFD6" offset="100%"></stop>
        </linearGradient>
        <linearGradient x1="92.4027833%" y1="38.8292704%" x2="29.2759041%" y2="74.5303138%" id="linearGradient-3">
            <stop stop-color="#001CFF" offset="0%"></stop>
            <stop stop-color="#00FFD6" offset="100%"></stop>
        </linearGradient>
        <linearGradient x1="231.492912%" y1="-408.564891%" x2="-565.809603%" y2="-408.564891%" id="linearGradient-4">
            <stop stop-color="#001CFF" offset="0%"></stop>
            <stop stop-color="#00FFD6" offset="100%"></stop>
        </linearGradient>
        <linearGradient x1="239.602587%" y1="-238.464688%" x2="-561.566331%" y2="-238.464688%" id="linearGradient-5">
            <stop stop-color="#001CFF" offset="0%"></stop>
            <stop stop-color="#00FFD6" offset="100%"></stop>
        </linearGradient>
    </defs>
    <g id="Logo-Only" stroke="none" stroke-width="1" fill="none" fill-rule="evenodd">
        <path d="M73,16.185117 L73,60.7510445 L69.4960734,62.3109333 L36.50051,77 L36.50051,32.4340725 L73,16.185117 Z M68.9579651,23.2178295 L42.7565455,34.8885523 L42.7565455,70.2429745 L68.9579651,58.5722517 L68.9579651,45.3143434 L64.5910618,42.8401611 L68.9579651,36.4757378 L68.9579651,23.2178295 Z" id="Combined-Shape" fill="url(#linearGradient-1)"></path>
        <polygon id="Rectangle-2" fill="url(#linearGradient-2)" points="36.6836429 32.5469765 0 16.2345491 36.4911361 0 72.988924 16.2091878"></polygon>
        <path d="M13.6666667,40.1391255 L22.3333333,44.0261215 L22.3333333,39.608745 L13.6666667,35.721749 L13.6666667,40.1391255 Z M31,70 L22.3333333,66.113004 L22.3333333,52.8608745 L13.6666667,48.9738785 L13.6666667,62.2260079 L5,58.3390119 L5,23 L31,34.6609881 L31,70 Z" id="A" fill="url(#linearGradient-3)"></path>
        <polygon id="B" fill="url(#linearGradient-4)" points="61 49 52 52.7453233 52 57 61 53.2546767"></polygon>
        <polygon id="B" fill="url(#linearGradient-5)" points="61 36 52 39.7453233 52 44 61 40.2546767"></polygon>
    </g>
</svg>