<?xml version="1.0" encoding="UTF-8"?>
<svg width="73px" height="77px" viewBox="0 0 73 77" version="1.1" xmlns="http://www.w3.org/2000/svg" xmlns:xlink="http://www.w3.org/1999/xlink">
    <title>appboxes</title>
    <g id="Logo-Only-White" stroke="none" stroke-width="1" fill="none" fill-rule="evenodd">
        <g id="Group" fill="#FFFFFF">
            <path d="M36.4911361,0 L72.967,16.2 L73,16.185117 L73,60.7510445 L69.4960734,62.3109333 L36.50051,77 L36.5,32.465 L0,16.2345491 L36.4911361,0 Z M68.9579651,23.2178295 L42.7565455,34.8885523 L42.7565455,70.2429745 L68.9579651,58.5722517 L68.9579651,45.3143434 L64.5910618,42.8401611 L68.9579651,36.4757378 L68.9579651,23.2178295 Z" id="Combined-Shape"></path>
            <path d="M13.6666667,40.1391255 L22.3333333,44.0261215 L22.3333333,39.608745 L13.6666667,35.721749 L13.6666667,40.1391255 Z M31,70 L22.3333333,66.113004 L22.3333333,52.8608745 L13.6666667,48.9738785 L13.6666667,62.2260079 L5,58.3390119 L5,23 L31,34.6609881 L31,70 Z" id="A"></path>
            <polygon id="B" points="61 49 52 52.7453233 52 57 61 53.2546767"></polygon>
            <polygon id="B" points="61 36 52 39.7453233 52 44 61 40.2546767"></polygon>
        </g>
    </g>
</svg>