<?xml version="1.0" encoding="utf-8"?>
<!-- Appbox Icon - Lighter version for dark themes -->
<svg version="1.1" id="Layer_1" xmlns="http://www.w3.org/2000/svg" xmlns:xlink="http://www.w3.org/1999/xlink" x="0px" y="0px"
	 viewBox="0 0 156 156" style="enable-background:new 0 0 156 156;" xml:space="preserve">
<style type="text/css">
	.st0{fill-rule:evenodd;clip-rule:evenodd;fill:url(#Combined-Shape_lighter);}
	.st1{fill-rule:evenodd;clip-rule:evenodd;fill:url(#A_lighter);}
	.st2{fill-rule:evenodd;clip-rule:evenodd;fill:url(#B_lighter);}
	.st3{fill-rule:evenodd;clip-rule:evenodd;fill:url(#B2_lighter);}
</style>
<g id="Group" transform="translate(119.000000, 33.000000)">
	
	<linearGradient id="Combined-Shape_lighter" gradientUnits="userSpaceOnUse" x1="-114.6513" y1="480.2895" x2="-113.7332" y2="479.2795" gradientTransform="matrix(148 0 0 -156 16873 74881)">
		<stop  offset="0" style="stop-color:#5A3FBF"/>
		<stop  offset="1" style="stop-color:#D084E3"/>
	</linearGradient>
	
	<path id="Combined-Shape" style="fill-rule:evenodd;clip-rule:evenodd;fill:url(#Combined-Shape_lighter);" d="
		M-41-32.5L33,0.3l0.1,0v90.3L26,93.7l-66.9,29.8l0-90.2l-74-32.9L-41-32.5z M24.9,14.5l-53.1,23.6v71.6l53.1-23.6V59.3l-8.9-5
		l8.9-12.9V14.5z"/>
	
	<linearGradient id="A_lighter" gradientUnits="userSpaceOnUse" x1="-115.8445" y1="480.3524" x2="-115.5271" y2="479.3423" gradientTransform="matrix(53 0 0 -95 6053 45648)">
		<stop  offset="0" style="stop-color:#5A3FBF"/>
		<stop  offset="1" style="stop-color:#D084E3"/>
	</linearGradient>
	<path id="A" style="fill-rule:evenodd;clip-rule:evenodd;fill:url(#A_lighter);" d="
		M-87.3,49.1l17.7,7.9v-8.9l-17.7-7.9V49.1z M-51.9,109.5l-17.7-7.9V74.8L-87.3,67v26.8l-17.7-7.9V14.5l53,23.6V109.5z"/>
	
	<linearGradient id="B_lighter" gradientUnits="userSpaceOnUse" x1="-120.4429" y1="481.9874" x2="-119.4229" y2="481.1894" gradientTransform="matrix(18 0 0 -16 2158 7780)">
		<stop  offset="0" style="stop-color:#5A3FBF"/>
		<stop  offset="1" style="stop-color:#D084E3"/>
	</linearGradient>
	
	<polygon id="B" style="fill-rule:evenodd;clip-rule:evenodd;fill:url(#B_lighter);" points="
		8.1,66.5 -9.9,74 -9.9,82.5 8.1,75 	"/>
	
	<linearGradient id="B2_lighter" gradientUnits="userSpaceOnUse" x1="-120.4429" y1="481.9874" x2="-119.4229" y2="481.1894" gradientTransform="matrix(18 0 0 -16 2158 7754)">
		<stop  offset="0" style="stop-color:#5A3FBF"/>
		<stop  offset="1" style="stop-color:#D084E3"/>
	</linearGradient>
	
	<polygon id="B2" style="fill-rule:evenodd;clip-rule:evenodd;fill:url(#B2_lighter);" points="
		8.1,40.5 -9.9,48 -9.9,56.5 8.1,49 	"/>
</g>
</svg>
