<?xml version="1.0" encoding="UTF-8"?>
<svg
  xmlns="http://www.w3.org/2000/svg"
  width="200"
  height="212"
  viewBox="0 0 161 170"
  fill="none"
  style="
    filter:drop-shadow(0 0 2px #7B68EE);
    -webkit-filter:drop-shadow(0 0 2px #7B68EE);
  ">

  <defs>
    <linearGradient id="appbox-gradient" x1="0%" y1="0%" x2="100%" y2="100%">
      <stop offset="0%"   stop-color="#7B68EE"/>
      <stop offset="50%"  stop-color="#7B68EE"/>
      <stop offset="100%" stop-color="#3498DB"/>
    </linearGradient>

    <filter id="glow" x="-20%" y="-20%" width="140%" height="140%">
      <feGaussianBlur stdDeviation="2" result="blur"/>
      <feComposite in="SourceGraphic" in2="blur" operator="over"/>
    </filter>
  </defs>

  <g fill="none" fill-rule="evenodd">

    <!-- Thick, translucent outline with glow -->
    <g stroke="url(#appbox-gradient)" stroke-width="2.5" opacity="0.3" filter="url(#glow)">
      <path d="
        M 80.48 0.547  160.427 36.09
        l 0.073 97.711  -7.431  3.312  -72.068 32.117  0.001 -97.879
        L 1.229 35.842  80.48 0.547 Z

        m 72.104 49.943
        -58.786 26.212 v 79.15
        l 58.786 -26.212 V 99.753
        l -9.41 -5.337  9.41 -13.73
        V 50.49 Z"/>

      <path d="
        M 30 88.925  l 19  8.601 v -9.775
        L 30 79.15   v  9.775 Z

        m 38 66.075
        -19 -8.601 v -29.323
        L 30 108.474 v 29.324
        l -19 -8.602 V 51
        l 57 25.803 v 79.197 Z"/>

      <polygon points="135 108 115 116.427 115 126 135 117.573"/>
      <polygon points="135 79  115 87.427  115 97  135 88.573"/>
    </g>

    <!-- Main outline -->
    <g stroke="url(#appbox-gradient)" stroke-width="1">
      <path d="
        M 80.48 0.547  160.427 36.09
        l 0.073 97.711  -7.431  3.312  -72.068 32.117  0.001 -97.879
        L 1.229 35.842  80.48 0.547 Z

        m 72.104 49.943
        -58.786 26.212 v 79.15
        l 58.786 -26.212 V 99.753
        l -9.41 -5.337  9.41 -13.73
        V 50.49 Z"/>

      <path d="
        M 30 88.925  l 19  8.601 v -9.775
        L 30 79.15   v  9.775 Z

        m 38 66.075
        -19 -8.601 v -29.323
        L 30 108.474 v 29.324
        l -19 -8.602 V 51
        l 57 25.803 v 79.197 Z"/>

      <polygon points="135 108 115 116.427 115 126 135 117.573"/>
      <polygon points="135 79  115 87.427  115 97  135 88.573"/>
    </g>

  </g>
</svg>

